<svg width="81" height="80" viewBox="0 0 81 80" fill="none" xmlns="http://www.w3.org/2000/svg">
<ellipse cx="40.7478" cy="40" rx="39.8738" ry="40" fill="#EAD7CA"/>
<path d="M35.292 55.8401C34.6697 55.7419 34.1858 55.6892 33.713 55.5862C32.2869 55.2741 31.1177 54.5188 30.0974 53.4857C27.8284 51.1895 25.5419 48.9109 23.2641 46.6236C22.4985 45.8555 21.7376 45.0819 20.9728 44.313C20.8821 44.2212 20.777 44.143 20.6401 44.0248C20.1228 44.5398 19.6175 45.0412 19.1145 45.5418C18.3186 46.3401 17.5227 47.1385 16.7269 47.9369C16.2318 48.4335 15.7551 48.4159 15.3261 47.8698C14.7865 47.1824 14.2573 46.4878 13.7344 45.7901C13.3986 45.3446 13.4288 44.8767 13.7965 44.5925C14.1507 44.3162 14.6322 44.42 14.9696 44.8519C15.3429 45.331 15.7113 45.81 16.1698 46.4032L24.1825 38.2908C23.7241 37.9268 23.3294 37.605 22.9267 37.2944C20.885 35.719 18.8423 34.1453 16.7985 32.5736C15.9496 31.9205 15.1033 31.265 14.2597 30.6072C13.8474 30.2878 13.7726 29.8327 14.052 29.4599C14.3154 29.1086 14.8152 29.0695 15.2227 29.38C16.9115 30.6766 18.5985 31.9753 20.2836 33.2762C22.0531 34.6425 23.821 36.0101 25.5873 37.3791C26.3083 37.9379 26.3282 38.318 25.6796 38.9679C24.4714 40.1798 23.2721 41.3965 22.052 42.5941C21.8133 42.8336 21.8093 42.967 22.0401 43.1977C24.4054 45.5529 26.7707 47.9082 29.1113 50.2866C29.4384 50.6195 29.8213 50.681 30.2112 50.756C31.9802 51.1089 33.7888 51.2188 35.5873 51.0825C37.7982 50.9045 39.9367 50.4023 41.7736 49.0866C42.5503 48.5277 43.2125 47.8092 43.897 47.1273C46.1254 44.9233 48.3443 42.7112 50.5536 40.4912C52.5138 38.5263 54.4613 36.5495 56.4207 34.5831C59.3044 31.6903 62.191 28.8012 65.0805 25.9159C65.5198 25.4767 65.956 25.0328 66.3985 24.5985C66.5416 24.4593 66.7315 24.3791 66.9308 24.3736C67.13 24.3681 67.324 24.4378 67.4745 24.569C67.549 24.6399 67.6087 24.7251 67.6502 24.8194C67.6916 24.9137 67.7139 25.0154 67.7157 25.1185C67.7176 25.2215 67.6989 25.3239 67.6609 25.4197C67.6229 25.5155 67.5663 25.6027 67.4944 25.6763C66.0942 27.0959 64.6882 28.5109 63.2763 29.9214C61.1052 32.1036 58.933 34.2835 56.7597 36.4609C55.203 38.0231 53.6468 39.5855 52.0912 41.1482C52.0347 41.2067 51.9816 41.2682 51.932 41.3327C52.3634 41.9865 52.821 42.575 53.1656 43.224C53.9806 44.7601 54.1509 46.3944 53.7569 48.0894C53.4179 49.5433 52.6324 50.7241 51.5858 51.762C49.7808 53.5511 47.9941 55.3595 46.1954 57.1551C45.6741 57.6756 45.1377 58.181 44.6085 58.6935L44.6387 58.874C45.4449 59.1366 46.24 59.4448 47.0605 59.6524C48.3082 59.969 49.6041 60.0475 50.8807 59.8839C53.6813 59.5303 56.0029 58.2712 57.9695 56.2561C60.4924 53.6693 63.063 51.1265 65.6138 48.5692C65.8469 48.3353 66.1 48.1006 66.4813 48.2147C67.1331 48.4104 67.2771 49.1089 66.7638 49.6319C66.0857 50.3217 65.3965 51.0003 64.7128 51.6853C62.6887 53.7223 60.6606 55.7584 58.6284 57.7938C56.948 59.4883 54.8208 60.667 52.4963 61.1917C49.5046 61.8791 46.6069 61.5278 43.858 60.1378C43.5587 59.9861 43.3621 60.0005 43.0979 60.2544C42.1564 61.1598 41.2674 62.1641 40.1954 62.8795C37.3788 64.7565 33.5984 64.2096 31.2936 61.7306C31.1766 61.6053 31.0477 61.4911 30.9339 61.3641C30.5495 60.9362 30.5471 60.557 30.9514 60.1458C31.7022 59.3826 32.4585 58.6252 33.2204 57.8736C33.8834 57.2165 34.5527 56.5658 35.292 55.8401ZM32.5479 60.8316C32.9307 61.1095 33.2881 61.3961 33.6717 61.642C35.6064 62.8835 38.4214 62.6432 40.0776 61.0592C41.4035 59.7913 42.6896 58.4804 43.9869 57.1814C46.1795 54.9858 48.3466 52.7639 50.5631 50.5939C52.3491 48.8463 52.9587 46.3817 51.8668 44.0472C51.5985 43.4763 51.2691 42.9334 50.7334 42.5302C44.6817 48.6195 38.6514 54.6865 32.5479 60.8316ZM31.5459 52.5739C33.3716 54.6314 36.9411 54.9827 38.8153 52.118C36.3919 52.7336 33.9805 52.8246 31.5459 52.5739Z" fill="#1E3B2B" stroke="#EAD7CA" stroke-width="0.85"/>
<path d="M46.6803 51.1201C46.3914 51.3069 46.1438 51.4147 45.964 51.5919C44.7702 52.7719 43.5939 53.9647 42.4152 55.1575C42.0523 55.5247 42.0252 56.0277 42.3356 56.3279C42.6802 56.6616 43.1084 56.6473 43.4952 56.2728C43.8661 55.9152 44.2274 55.5471 44.5911 55.1814C45.457 54.3096 46.3221 53.437 47.1864 52.5635C47.4371 52.3097 47.5048 51.9807 47.3225 51.6925C47.1832 51.4706 46.9214 51.3268 46.6803 51.1201ZM42.1796 57.2676C42.1796 56.7167 41.6225 56.2992 41.145 56.5626C40.8127 56.7475 40.5324 57.0137 40.33 57.3363C40.0252 57.8473 40.4359 58.4636 41.0137 58.454C41.488 58.442 42.178 57.7435 42.178 57.2692L42.1796 57.2676Z" fill="#1E3B2B" stroke="#EAD7CA"/>
<path d="M46.6804 51.1201C46.9191 51.3268 47.1834 51.4706 47.3234 51.6925C47.5057 51.9807 47.438 52.3097 47.1873 52.5635C46.3236 53.4386 45.4584 54.3112 44.592 55.1814C44.2283 55.5471 43.867 55.9152 43.4961 56.2728C43.1093 56.6457 42.6811 56.6616 42.3373 56.3263C42.0269 56.0261 42.054 55.5232 42.4169 55.1559C43.5956 53.9631 44.7743 52.7703 45.9657 51.5903C46.144 51.4147 46.3915 51.3069 46.6804 51.1201Z" fill="#1E3B2B" stroke="#EAD7CA"/>
<path d="M42.1782 57.2692C42.1782 57.7435 41.4866 58.4421 41.0122 58.4524C40.4344 58.4652 40.0238 57.8489 40.3286 57.3347C40.5316 57.0138 40.8118 56.7494 41.1435 56.5658C41.6211 56.3008 42.1829 56.7183 42.1782 57.2692Z" fill="#1E3B2B" stroke="#EAD7CA"/>
</svg>
