<svg width="81" height="80" viewBox="0 0 81 80" fill="none" xmlns="http://www.w3.org/2000/svg">
<ellipse cx="40.4954" cy="40" rx="39.8738" ry="40" fill="#EAD7CA"/>
<mask id="path-2-inside-1_448_14442" fill="white">
<path d="M35.8092 23.9183C35.8461 23.2761 35.7216 22.6349 35.4471 22.0536C34.9054 20.9253 34.838 19.8116 35.4017 18.6659C35.6887 18.0852 35.8295 17.4429 35.8118 16.7951C35.8011 16.3556 35.5113 16.0159 35.1259 16.0031C34.7298 15.9904 34.4579 16.3341 34.4018 16.7938C34.3517 17.2286 34.2943 17.6869 34.116 18.0783C33.4367 19.5678 33.4287 21.0264 34.124 22.5112C34.4775 23.2405 34.531 24.0799 34.2729 24.8483C34.0993 25.3844 33.8722 25.9003 33.7225 26.441C33.633 26.7667 33.6297 27.1211 33.623 27.4635C33.622 27.5549 33.6389 27.6457 33.6729 27.7305C33.7069 27.8154 33.7573 27.8926 33.8212 27.9579C33.8851 28.0231 33.9612 28.0751 34.0451 28.1108C34.129 28.1464 34.2192 28.1651 34.3103 28.1657C34.4943 28.1643 34.6703 28.0906 34.8007 27.9605C34.9311 27.8303 35.0054 27.654 35.0076 27.4695C35.001 26.9221 35.1492 26.4249 35.369 25.9284C35.6555 25.2886 35.8532 24.6178 35.8092 23.9183ZM41.725 16.9981L41.8131 16.9653C41.7096 16.71 41.6515 16.4199 41.4905 16.2095C41.3376 16.0085 41.0771 15.9415 40.7986 16.0581C40.4646 16.2008 40.3424 16.4695 40.3377 16.7985C40.329 17.3667 40.1447 17.8799 39.9276 18.3958C39.3932 19.6629 39.3779 20.95 39.9343 22.209C40.3878 23.2349 40.508 24.2473 40.0291 25.2912C39.7268 25.923 39.5602 26.6115 39.5402 27.3121C39.5328 27.7811 39.7219 28.0585 40.0939 28.1469C40.522 28.2488 40.9008 27.9412 40.9328 27.4414C40.9593 26.9096 41.0832 26.3872 41.2982 25.9003C41.906 24.5528 41.8993 23.1907 41.2935 21.8432C40.8767 20.9172 40.8066 19.9818 41.1853 19.0377C41.4531 18.3778 41.7236 17.7251 41.7276 16.9981H41.725ZM47.7216 23.8553C47.6248 23.3689 47.5533 22.8751 47.4237 22.3973C47.3209 22.0161 47.1238 21.6603 47.0103 21.281C46.7257 20.3282 46.8867 19.4257 47.3122 18.5386C47.6126 17.9271 47.7213 17.2387 47.6241 16.564C47.5533 16.0869 47.0403 15.8691 46.6302 16.1103C46.3631 16.2678 46.2709 16.5197 46.2629 16.8085C46.2482 17.3613 46.0859 17.8665 45.8675 18.3737C45.3137 19.6582 45.3037 20.9675 45.8781 22.2466C46.3724 23.3481 46.4025 24.4222 45.8781 25.515C45.5949 26.0959 45.4599 26.7383 45.4854 27.3844C45.4947 27.5955 45.5923 27.8595 45.7419 27.9969C46.1473 28.3667 46.7324 28.1181 46.8486 27.572C46.9702 27.0012 47.043 26.4075 47.2594 25.8735C47.5212 25.2175 47.6522 24.5602 47.7243 23.8553H47.7216Z"/>
</mask>
<path d="M35.8092 23.9183C35.8461 23.2761 35.7216 22.6349 35.4471 22.0536C34.9054 20.9253 34.838 19.8116 35.4017 18.6659C35.6887 18.0852 35.8295 17.4429 35.8118 16.7951C35.8011 16.3556 35.5113 16.0159 35.1259 16.0031C34.7298 15.9904 34.4579 16.3341 34.4018 16.7938C34.3517 17.2286 34.2943 17.6869 34.116 18.0783C33.4367 19.5678 33.4287 21.0264 34.124 22.5112C34.4775 23.2405 34.531 24.0799 34.2729 24.8483C34.0993 25.3844 33.8722 25.9003 33.7225 26.441C33.633 26.7667 33.6297 27.1211 33.623 27.4635C33.622 27.5549 33.6389 27.6457 33.6729 27.7305C33.7069 27.8154 33.7573 27.8926 33.8212 27.9579C33.8851 28.0231 33.9612 28.0751 34.0451 28.1108C34.129 28.1464 34.2192 28.1651 34.3103 28.1657C34.4943 28.1643 34.6703 28.0906 34.8007 27.9605C34.9311 27.8303 35.0054 27.654 35.0076 27.4695C35.001 26.9221 35.1492 26.4249 35.369 25.9284C35.6555 25.2886 35.8532 24.6178 35.8092 23.9183ZM41.725 16.9981L41.8131 16.9653C41.7096 16.71 41.6515 16.4199 41.4905 16.2095C41.3376 16.0085 41.0771 15.9415 40.7986 16.0581C40.4646 16.2008 40.3424 16.4695 40.3377 16.7985C40.329 17.3667 40.1447 17.8799 39.9276 18.3958C39.3932 19.6629 39.3779 20.95 39.9343 22.209C40.3878 23.2349 40.508 24.2473 40.0291 25.2912C39.7268 25.923 39.5602 26.6115 39.5402 27.3121C39.5328 27.7811 39.7219 28.0585 40.0939 28.1469C40.522 28.2488 40.9008 27.9412 40.9328 27.4414C40.9593 26.9096 41.0832 26.3872 41.2982 25.9003C41.906 24.5528 41.8993 23.1907 41.2935 21.8432C40.8767 20.9172 40.8066 19.9818 41.1853 19.0377C41.4531 18.3778 41.7236 17.7251 41.7276 16.9981H41.725ZM47.7216 23.8553C47.6248 23.3689 47.5533 22.8751 47.4237 22.3973C47.3209 22.0161 47.1238 21.6603 47.0103 21.281C46.7257 20.3282 46.8867 19.4257 47.3122 18.5386C47.6126 17.9271 47.7213 17.2387 47.6241 16.564C47.5533 16.0869 47.0403 15.8691 46.6302 16.1103C46.3631 16.2678 46.2709 16.5197 46.2629 16.8085C46.2482 17.3613 46.0859 17.8665 45.8675 18.3737C45.3137 19.6582 45.3037 20.9675 45.8781 22.2466C46.3724 23.3481 46.4025 24.4222 45.8781 25.515C45.5949 26.0959 45.4599 26.7383 45.4854 27.3844C45.4947 27.5955 45.5923 27.8595 45.7419 27.9969C46.1473 28.3667 46.7324 28.1181 46.8486 27.572C46.9702 27.0012 47.043 26.4075 47.2594 25.8735C47.5212 25.2175 47.6522 24.5602 47.7243 23.8553H47.7216Z" fill="#1E3B2B" stroke="#EAD7CA" stroke-width="0.7" mask="url(#path-2-inside-1_448_14442)"/>
<mask id="path-3-inside-2_448_14442" fill="white">
<path d="M68.3968 44.5268C68.2699 44.9369 68.1637 45.355 68.0114 45.7556C67.5439 46.9872 66.6849 47.871 65.5227 48.4593C64.7459 48.8519 63.9097 48.9765 63.0454 48.9738C60.6582 48.9678 58.2711 48.9738 55.8832 48.9678C55.6308 48.9678 55.4678 49.0274 55.3122 49.2579C54.0389 51.1604 52.372 52.7654 50.4249 53.9636C49.8552 54.3134 49.2621 54.627 48.6095 54.9968C48.8025 55.0156 48.9435 55.0417 49.0837 55.0417C53.7365 55.0417 58.3897 55.0446 63.0434 55.0504C63.2965 55.0504 63.5824 55.094 63.7908 55.2206C63.9311 55.3064 64.0299 55.5737 64.0299 55.76C64.0266 57.281 63.362 58.4576 62.1143 59.3059C61.3856 59.8017 60.5674 60 59.6938 60C46.9911 60 34.2883 60 21.5852 60C19.687 60 18.1534 58.9581 17.4955 57.1859C17.3292 56.7376 17.2844 56.2357 17.239 55.7526C17.2023 55.3654 17.4641 55.1034 17.8468 55.0618C18.0128 55.0485 18.1793 55.0436 18.3458 55.0471C22.954 55.0471 27.5627 55.0471 32.1719 55.0471C32.3175 55.0471 32.4631 55.0236 32.6501 55.0076C31.8873 54.5573 31.1673 54.162 30.4767 53.7197C28.7955 52.6423 27.3962 51.2614 26.2266 49.6446C24.2049 46.8451 23.1247 43.4723 23.1428 40.0154C23.1393 37.1637 23.1393 34.3123 23.1428 31.461C23.1428 30.7628 23.3813 30.527 24.0833 30.527H57.195C57.9004 30.527 58.1362 30.7628 58.1395 31.465C58.1395 31.9769 58.1508 32.4902 58.1355 33.0021C58.1275 33.2607 58.2076 33.3478 58.4748 33.3458C60.0177 33.3338 61.5613 33.3418 63.1049 33.3398C65.124 33.3398 66.6856 34.18 67.7135 35.9255C67.9934 36.4019 68.1143 36.9734 68.3033 37.5014C68.3374 37.5932 68.3668 37.687 68.3982 37.7795L68.3968 44.5268ZM40.6779 31.93C35.4373 31.93 30.1964 31.9274 24.9549 31.922C24.6149 31.922 24.5274 32.0151 24.5294 32.3515C24.5435 34.8802 24.5294 37.409 24.5395 39.937C24.5352 41.1165 24.6636 42.2927 24.9222 43.4433C25.3255 45.227 26.0581 46.9192 27.0823 48.4325C28.4797 50.5103 30.3767 52.2014 32.598 53.3492C34.3707 54.2698 36.2455 54.832 38.2313 54.9687C40.0347 55.0933 41.8454 55.1027 43.6515 54.9017C45.2147 54.7282 46.738 54.2941 48.1587 53.6172C50.0386 52.7369 51.711 51.4665 53.0653 49.8898C55.3435 47.2425 56.6019 44.177 56.7048 40.6875C56.7863 37.9269 56.7342 35.163 56.7402 32.4004C56.7402 31.9314 56.7402 31.9314 56.2726 31.9314L40.6779 31.93ZM18.7512 56.4763C18.8367 56.9627 19.0725 57.3339 19.371 57.6596C20.0022 58.3477 20.8044 58.6057 21.7268 58.605C30.9197 58.5983 40.1122 58.597 49.3042 58.601C52.7235 58.601 56.1428 58.601 59.5622 58.601C60.2301 58.601 60.8613 58.4851 61.4157 58.0891C61.97 57.6931 62.3661 57.1892 62.5371 56.4743L18.7512 56.4763ZM56.3601 47.5373C56.4148 47.5496 56.4701 47.5588 56.5258 47.5647C58.8455 47.5647 61.1659 47.5929 63.4849 47.5534C65.3825 47.5212 66.9768 45.8608 66.9928 43.9579C67.0089 42.11 67.0089 40.2618 66.9928 38.4133C66.9795 36.4361 65.4212 34.8059 63.4468 34.7529C61.7717 34.708 60.0952 34.7422 58.4187 34.7321C58.1929 34.7321 58.1308 34.8219 58.1362 35.0296C58.1462 35.3968 58.1575 35.7667 58.1362 36.1319C58.1141 36.4501 58.2163 36.55 58.5422 36.5466C60.1186 36.531 61.6946 36.531 63.2705 36.5466C64.3966 36.5573 65.1981 37.3855 65.1981 38.5192C65.2021 40.2787 65.2021 42.038 65.1981 43.7971C65.2029 43.9742 65.1824 44.1511 65.1374 44.3224C64.8562 45.2605 64.1755 45.7617 63.195 45.763C61.419 45.763 59.643 45.7865 57.8676 45.7496C57.3333 45.7389 57.0067 45.8387 56.8577 46.4009C56.7529 46.7868 56.5371 47.142 56.3601 47.5373ZM57.5971 44.3258C57.6287 44.3396 57.6616 44.3499 57.6953 44.3566C59.5481 44.3566 61.401 44.3653 63.2538 44.3566C63.6105 44.3566 63.7975 44.1449 63.7982 43.7837C63.8008 42.0255 63.8008 40.2669 63.7982 38.5078C63.7982 38.1581 63.5978 37.951 63.2398 37.9497C61.6314 37.943 60.0224 37.9497 58.4133 37.943C58.213 37.943 58.1368 38.0174 58.1388 38.2164C58.1455 38.7618 58.1669 39.3085 58.1348 39.8519C58.076 40.8496 58.0012 41.848 57.895 42.841C57.8416 43.3355 57.702 43.8179 57.5971 44.3258Z"/>
</mask>
<path d="M68.3968 44.5268C68.2699 44.9369 68.1637 45.355 68.0114 45.7556C67.5439 46.9872 66.6849 47.871 65.5227 48.4593C64.7459 48.8519 63.9097 48.9765 63.0454 48.9738C60.6582 48.9678 58.2711 48.9738 55.8832 48.9678C55.6308 48.9678 55.4678 49.0274 55.3122 49.2579C54.0389 51.1604 52.372 52.7654 50.4249 53.9636C49.8552 54.3134 49.2621 54.627 48.6095 54.9968C48.8025 55.0156 48.9435 55.0417 49.0837 55.0417C53.7365 55.0417 58.3897 55.0446 63.0434 55.0504C63.2965 55.0504 63.5824 55.094 63.7908 55.2206C63.9311 55.3064 64.0299 55.5737 64.0299 55.76C64.0266 57.281 63.362 58.4576 62.1143 59.3059C61.3856 59.8017 60.5674 60 59.6938 60C46.9911 60 34.2883 60 21.5852 60C19.687 60 18.1534 58.9581 17.4955 57.1859C17.3292 56.7376 17.2844 56.2357 17.239 55.7526C17.2023 55.3654 17.4641 55.1034 17.8468 55.0618C18.0128 55.0485 18.1793 55.0436 18.3458 55.0471C22.954 55.0471 27.5627 55.0471 32.1719 55.0471C32.3175 55.0471 32.4631 55.0236 32.6501 55.0076C31.8873 54.5573 31.1673 54.162 30.4767 53.7197C28.7955 52.6423 27.3962 51.2614 26.2266 49.6446C24.2049 46.8451 23.1247 43.4723 23.1428 40.0154C23.1393 37.1637 23.1393 34.3123 23.1428 31.461C23.1428 30.7628 23.3813 30.527 24.0833 30.527H57.195C57.9004 30.527 58.1362 30.7628 58.1395 31.465C58.1395 31.9769 58.1508 32.4902 58.1355 33.0021C58.1275 33.2607 58.2076 33.3478 58.4748 33.3458C60.0177 33.3338 61.5613 33.3418 63.1049 33.3398C65.124 33.3398 66.6856 34.18 67.7135 35.9255C67.9934 36.4019 68.1143 36.9734 68.3033 37.5014C68.3374 37.5932 68.3668 37.687 68.3982 37.7795L68.3968 44.5268ZM40.6779 31.93C35.4373 31.93 30.1964 31.9274 24.9549 31.922C24.6149 31.922 24.5274 32.0151 24.5294 32.3515C24.5435 34.8802 24.5294 37.409 24.5395 39.937C24.5352 41.1165 24.6636 42.2927 24.9222 43.4433C25.3255 45.227 26.0581 46.9192 27.0823 48.4325C28.4797 50.5103 30.3767 52.2014 32.598 53.3492C34.3707 54.2698 36.2455 54.832 38.2313 54.9687C40.0347 55.0933 41.8454 55.1027 43.6515 54.9017C45.2147 54.7282 46.738 54.2941 48.1587 53.6172C50.0386 52.7369 51.711 51.4665 53.0653 49.8898C55.3435 47.2425 56.6019 44.177 56.7048 40.6875C56.7863 37.9269 56.7342 35.163 56.7402 32.4004C56.7402 31.9314 56.7402 31.9314 56.2726 31.9314L40.6779 31.93ZM18.7512 56.4763C18.8367 56.9627 19.0725 57.3339 19.371 57.6596C20.0022 58.3477 20.8044 58.6057 21.7268 58.605C30.9197 58.5983 40.1122 58.597 49.3042 58.601C52.7235 58.601 56.1428 58.601 59.5622 58.601C60.2301 58.601 60.8613 58.4851 61.4157 58.0891C61.97 57.6931 62.3661 57.1892 62.5371 56.4743L18.7512 56.4763ZM56.3601 47.5373C56.4148 47.5496 56.4701 47.5588 56.5258 47.5647C58.8455 47.5647 61.1659 47.5929 63.4849 47.5534C65.3825 47.5212 66.9768 45.8608 66.9928 43.9579C67.0089 42.11 67.0089 40.2618 66.9928 38.4133C66.9795 36.4361 65.4212 34.8059 63.4468 34.7529C61.7717 34.708 60.0952 34.7422 58.4187 34.7321C58.1929 34.7321 58.1308 34.8219 58.1362 35.0296C58.1462 35.3968 58.1575 35.7667 58.1362 36.1319C58.1141 36.4501 58.2163 36.55 58.5422 36.5466C60.1186 36.531 61.6946 36.531 63.2705 36.5466C64.3966 36.5573 65.1981 37.3855 65.1981 38.5192C65.2021 40.2787 65.2021 42.038 65.1981 43.7971C65.2029 43.9742 65.1824 44.1511 65.1374 44.3224C64.8562 45.2605 64.1755 45.7617 63.195 45.763C61.419 45.763 59.643 45.7865 57.8676 45.7496C57.3333 45.7389 57.0067 45.8387 56.8577 46.4009C56.7529 46.7868 56.5371 47.142 56.3601 47.5373ZM57.5971 44.3258C57.6287 44.3396 57.6616 44.3499 57.6953 44.3566C59.5481 44.3566 61.401 44.3653 63.2538 44.3566C63.6105 44.3566 63.7975 44.1449 63.7982 43.7837C63.8008 42.0255 63.8008 40.2669 63.7982 38.5078C63.7982 38.1581 63.5978 37.951 63.2398 37.9497C61.6314 37.943 60.0224 37.9497 58.4133 37.943C58.213 37.943 58.1368 38.0174 58.1388 38.2164C58.1455 38.7618 58.1669 39.3085 58.1348 39.8519C58.076 40.8496 58.0012 41.848 57.895 42.841C57.8416 43.3355 57.702 43.8179 57.5971 44.3258Z" fill="#1E3B2B" stroke="#EAD7CA" stroke-width="0.7" mask="url(#path-3-inside-2_448_14442)"/>
<mask id="path-4-inside-3_448_14442" fill="white">
<path d="M35.8092 23.9184C35.8506 24.6179 35.6529 25.2886 35.367 25.9285C35.1472 26.423 34.999 26.9201 35.0056 27.4696C35.0034 27.6543 34.9289 27.8308 34.7982 27.961C34.6676 28.0912 34.4912 28.1647 34.307 28.1657C34.2158 28.1651 34.1257 28.1465 34.0418 28.1108C33.9578 28.0751 33.8817 28.0232 33.8179 27.9579C33.754 27.8927 33.7036 27.8154 33.6696 27.7306C33.6356 27.6457 33.6186 27.555 33.6197 27.4635C33.6264 27.1212 33.6297 26.7667 33.7192 26.4411C33.8682 25.9003 34.0959 25.3824 34.2696 24.8484C34.5287 24.0804 34.4764 23.241 34.124 22.5113C33.4287 21.0292 33.4367 19.5678 34.116 18.0783C34.2943 17.687 34.3517 17.2287 34.4018 16.7938C34.4553 16.3342 34.7298 15.9898 35.1259 16.0032C35.5113 16.0159 35.8011 16.3556 35.8118 16.7952C35.8295 17.443 35.6887 18.0853 35.4017 18.6659C34.838 19.8117 34.9054 20.9253 35.4471 22.0536C35.7216 22.635 35.8461 23.2762 35.8092 23.9184Z"/>
</mask>
<path d="M35.8092 23.9184C35.8506 24.6179 35.6529 25.2886 35.367 25.9285C35.1472 26.423 34.999 26.9201 35.0056 27.4696C35.0034 27.6543 34.9289 27.8308 34.7982 27.961C34.6676 28.0912 34.4912 28.1647 34.307 28.1657C34.2158 28.1651 34.1257 28.1465 34.0418 28.1108C33.9578 28.0751 33.8817 28.0232 33.8179 27.9579C33.754 27.8927 33.7036 27.8154 33.6696 27.7306C33.6356 27.6457 33.6186 27.555 33.6197 27.4635C33.6264 27.1212 33.6297 26.7667 33.7192 26.4411C33.8682 25.9003 34.0959 25.3824 34.2696 24.8484C34.5287 24.0804 34.4764 23.241 34.124 22.5113C33.4287 21.0292 33.4367 19.5678 34.116 18.0783C34.2943 17.687 34.3517 17.2287 34.4018 16.7938C34.4553 16.3342 34.7298 15.9898 35.1259 16.0032C35.5113 16.0159 35.8011 16.3556 35.8118 16.7952C35.8295 17.443 35.6887 18.0853 35.4017 18.6659C34.838 19.8117 34.9054 20.9253 35.4471 22.0536C35.7216 22.635 35.8461 23.2762 35.8092 23.9184Z" fill="#1E3B2B" stroke="#EAD7CA" stroke-width="0.7" mask="url(#path-4-inside-3_448_14442)"/>
<mask id="path-5-inside-4_448_14442" fill="white">
<path d="M41.7282 16.9982C41.7242 17.7252 41.4537 18.3778 41.1885 19.0378C40.8098 19.9819 40.88 20.9173 41.2967 21.8432C41.9039 23.1907 41.9092 24.5529 41.3014 25.9003C41.0864 26.3872 40.9626 26.9096 40.9361 27.4414C40.904 27.9413 40.5253 28.2488 40.0971 28.147C39.7251 28.0585 39.5361 27.7805 39.5434 27.3121C39.5635 26.6116 39.73 25.9231 40.0324 25.2913C40.5113 24.2487 40.391 23.2363 39.9375 22.2091C39.3811 20.9501 39.3965 19.6629 39.9308 18.3959C40.1479 17.88 40.3316 17.3667 40.3409 16.7985C40.3456 16.4695 40.4658 16.2008 40.8018 16.0581C41.0803 15.9389 41.3408 16.0099 41.4938 16.2096C41.6548 16.4199 41.7129 16.7101 41.8164 16.9654L41.7282 16.9982Z"/>
</mask>
<path d="M41.7282 16.9982C41.7242 17.7252 41.4537 18.3778 41.1885 19.0378C40.8098 19.9819 40.88 20.9173 41.2967 21.8432C41.9039 23.1907 41.9092 24.5529 41.3014 25.9003C41.0864 26.3872 40.9626 26.9096 40.9361 27.4414C40.904 27.9413 40.5253 28.2488 40.0971 28.147C39.7251 28.0585 39.5361 27.7805 39.5434 27.3121C39.5635 26.6116 39.73 25.9231 40.0324 25.2913C40.5113 24.2487 40.391 23.2363 39.9375 22.2091C39.3811 20.9501 39.3965 19.6629 39.9308 18.3959C40.1479 17.88 40.3316 17.3667 40.3409 16.7985C40.3456 16.4695 40.4658 16.2008 40.8018 16.0581C41.0803 15.9389 41.3408 16.0099 41.4938 16.2096C41.6548 16.4199 41.7129 16.7101 41.8164 16.9654L41.7282 16.9982Z" fill="#1E3B2B" stroke="#EAD7CA" stroke-width="0.7" mask="url(#path-5-inside-4_448_14442)"/>
<mask id="path-6-inside-5_448_14442" fill="white">
<path d="M47.7245 23.8554C47.6523 24.5603 47.5241 25.2176 47.2569 25.8702C47.0405 26.4062 46.9677 26.9979 46.8462 27.5687C46.7299 28.1148 46.1448 28.3634 45.7394 27.9936C45.5898 27.8562 45.4923 27.5915 45.4829 27.3811C45.4574 26.735 45.5924 26.0926 45.8757 25.5117C46.4027 24.4189 46.3726 23.3448 45.8757 22.2433C45.3012 20.9642 45.3113 19.6549 45.865 18.3704C46.0834 17.8632 46.2457 17.358 46.2604 16.8052C46.2684 16.5164 46.3592 16.2645 46.6277 16.107C47.0378 15.8658 47.5508 16.0836 47.6216 16.5607C47.7204 17.2362 47.6126 17.9259 47.3124 18.5386C46.8869 19.4258 46.7259 20.3283 47.0105 21.2811C47.124 21.6603 47.3211 22.0181 47.4239 22.3974C47.5562 22.8751 47.6276 23.3689 47.7245 23.8554Z"/>
</mask>
<path d="M47.7245 23.8554C47.6523 24.5603 47.5241 25.2176 47.2569 25.8702C47.0405 26.4062 46.9677 26.9979 46.8462 27.5687C46.7299 28.1148 46.1448 28.3634 45.7394 27.9936C45.5898 27.8562 45.4923 27.5915 45.4829 27.3811C45.4574 26.735 45.5924 26.0926 45.8757 25.5117C46.4027 24.4189 46.3726 23.3448 45.8757 22.2433C45.3012 20.9642 45.3113 19.6549 45.865 18.3704C46.0834 17.8632 46.2457 17.358 46.2604 16.8052C46.2684 16.5164 46.3592 16.2645 46.6277 16.107C47.0378 15.8658 47.5508 16.0836 47.6216 16.5607C47.7204 17.2362 47.6126 17.9259 47.3124 18.5386C46.8869 19.4258 46.7259 20.3283 47.0105 21.2811C47.124 21.6603 47.3211 22.0181 47.4239 22.3974C47.5562 22.8751 47.6276 23.3689 47.7245 23.8554Z" fill="#1E3B2B" stroke="#EAD7CA" stroke-width="0.7" mask="url(#path-6-inside-5_448_14442)"/>
</svg>
