<svg width="32" height="32" viewBox="0 0 32 32" fill="none" xmlns="http://www.w3.org/2000/svg">
<mask id="path-1-inside-1_448_14526" fill="white">
<path d="M26.1362 8.17541C26.1362 8.41327 26.0893 8.64882 25.9983 8.86857C25.9074 9.08834 25.7738 9.28802 25.6057 9.45622C25.4375 9.62443 25.2378 9.75783 25.0179 9.84887C24.7983 9.9399 24.5628 9.98675 24.3249 9.98675C24.087 9.98675 23.8515 9.9399 23.6317 9.84887C23.412 9.75783 23.2123 9.62443 23.044 9.45622C22.8758 9.28802 22.7424 9.08834 22.6515 8.86857C22.5603 8.64882 22.5136 8.41327 22.5136 8.17541C22.5136 7.69501 22.7043 7.23429 23.044 6.8946C23.3838 6.5549 23.8445 6.36407 24.3249 6.36407C24.8053 6.36407 25.266 6.5549 25.6057 6.8946C25.9453 7.23429 26.1362 7.69501 26.1362 8.17541ZM31.8872 16.3519V16.3754L31.7835 22.94C31.7571 25.3075 30.8048 27.5707 29.1308 29.2449C27.457 30.9193 25.194 31.8719 22.8265 31.8989L16.2384 32.0007H16.2149L9.65024 31.897C7.28272 31.8706 5.01959 30.9184 3.34524 29.2445C1.67086 27.5705 0.718262 25.3075 0.691316 22.94L0.5896 16.3519V16.3284L0.693273 9.76376C0.719699 7.39624 1.6718 5.13312 3.3458 3.45876C5.01981 1.78438 7.28272 0.831781 9.65024 0.804846L16.2384 0.703125H16.2618L22.8265 0.806802C25.194 0.833229 27.4572 1.78532 29.1314 3.45932C30.8058 5.13333 31.7584 7.39624 31.7854 9.76376L31.8872 16.3519ZM28.9726 16.3519L28.8709 9.80875C28.8525 8.19943 28.205 6.6612 27.0671 5.52316C25.9291 4.38514 24.3908 3.73772 22.7815 3.71943L16.2384 3.61771L9.69523 3.71943C8.08591 3.73772 6.54768 4.38514 5.40964 5.52316C4.27162 6.6612 3.62419 8.19943 3.60591 9.80875L3.50419 16.3519L3.60591 22.895C3.62419 24.5043 4.27162 26.0426 5.40964 27.1806C6.54768 28.3187 8.08591 28.966 9.69523 28.9844L16.2384 29.0861L22.7815 28.9844C24.3908 28.966 25.9291 28.3187 27.0671 27.1806C28.205 26.0426 28.8525 24.5043 28.8709 22.895L28.9726 16.3519ZM24.274 16.3519C24.274 18.4831 23.4274 20.527 21.9205 22.034C20.4135 23.5409 18.3695 24.3875 16.2384 24.3875C14.1072 24.3875 12.0633 23.5409 10.5563 22.034C9.04932 20.527 8.20273 18.4831 8.20273 16.3519C8.20273 14.2207 9.04932 12.1768 10.5563 10.6698C12.0633 9.16285 14.1072 8.31625 16.2384 8.31625C18.3695 8.31625 20.4135 9.16285 21.9205 10.6698C23.4274 12.1768 24.274 14.2207 24.274 16.3519ZM21.3595 16.3519C21.3595 14.9937 20.82 13.6911 19.8595 12.7307C18.8991 11.7704 17.5965 11.2308 16.2384 11.2308C14.8802 11.2308 13.5776 11.7704 12.6172 12.7307C11.6568 13.6911 11.1173 14.9937 11.1173 16.3519C11.1173 17.7101 11.6568 19.0126 12.6172 19.973C13.5776 20.9335 14.8802 21.473 16.2384 21.473C17.5965 21.473 18.8991 20.9335 19.8595 19.973C20.82 19.0126 21.3595 17.7101 21.3595 16.3519Z"/>
</mask>
<path d="M26.1362 8.17541C26.1362 8.41327 26.0893 8.64882 25.9983 8.86857C25.9074 9.08834 25.7738 9.28802 25.6057 9.45622C25.4375 9.62443 25.2378 9.75783 25.0179 9.84887C24.7983 9.9399 24.5628 9.98675 24.3249 9.98675C24.087 9.98675 23.8515 9.9399 23.6317 9.84887C23.412 9.75783 23.2123 9.62443 23.044 9.45622C22.8758 9.28802 22.7424 9.08834 22.6515 8.86857C22.5603 8.64882 22.5136 8.41327 22.5136 8.17541C22.5136 7.69501 22.7043 7.23429 23.044 6.8946C23.3838 6.5549 23.8445 6.36407 24.3249 6.36407C24.8053 6.36407 25.266 6.5549 25.6057 6.8946C25.9453 7.23429 26.1362 7.69501 26.1362 8.17541ZM31.8872 16.3519V16.3754L31.7835 22.94C31.7571 25.3075 30.8048 27.5707 29.1308 29.2449C27.457 30.9193 25.194 31.8719 22.8265 31.8989L16.2384 32.0007H16.2149L9.65024 31.897C7.28272 31.8706 5.01959 30.9184 3.34524 29.2445C1.67086 27.5705 0.718262 25.3075 0.691316 22.94L0.5896 16.3519V16.3284L0.693273 9.76376C0.719699 7.39624 1.6718 5.13312 3.3458 3.45876C5.01981 1.78438 7.28272 0.831781 9.65024 0.804846L16.2384 0.703125H16.2618L22.8265 0.806802C25.194 0.833229 27.4572 1.78532 29.1314 3.45932C30.8058 5.13333 31.7584 7.39624 31.7854 9.76376L31.8872 16.3519ZM28.9726 16.3519L28.8709 9.80875C28.8525 8.19943 28.205 6.6612 27.0671 5.52316C25.9291 4.38514 24.3908 3.73772 22.7815 3.71943L16.2384 3.61771L9.69523 3.71943C8.08591 3.73772 6.54768 4.38514 5.40964 5.52316C4.27162 6.6612 3.62419 8.19943 3.60591 9.80875L3.50419 16.3519L3.60591 22.895C3.62419 24.5043 4.27162 26.0426 5.40964 27.1806C6.54768 28.3187 8.08591 28.966 9.69523 28.9844L16.2384 29.0861L22.7815 28.9844C24.3908 28.966 25.9291 28.3187 27.0671 27.1806C28.205 26.0426 28.8525 24.5043 28.8709 22.895L28.9726 16.3519ZM24.274 16.3519C24.274 18.4831 23.4274 20.527 21.9205 22.034C20.4135 23.5409 18.3695 24.3875 16.2384 24.3875C14.1072 24.3875 12.0633 23.5409 10.5563 22.034C9.04932 20.527 8.20273 18.4831 8.20273 16.3519C8.20273 14.2207 9.04932 12.1768 10.5563 10.6698C12.0633 9.16285 14.1072 8.31625 16.2384 8.31625C18.3695 8.31625 20.4135 9.16285 21.9205 10.6698C23.4274 12.1768 24.274 14.2207 24.274 16.3519ZM21.3595 16.3519C21.3595 14.9937 20.82 13.6911 19.8595 12.7307C18.8991 11.7704 17.5965 11.2308 16.2384 11.2308C14.8802 11.2308 13.5776 11.7704 12.6172 12.7307C11.6568 13.6911 11.1173 14.9937 11.1173 16.3519C11.1173 17.7101 11.6568 19.0126 12.6172 19.973C13.5776 20.9335 14.8802 21.473 16.2384 21.473C17.5965 21.473 18.8991 20.9335 19.8595 19.973C20.82 19.0126 21.3595 17.7101 21.3595 16.3519Z" fill="#1E3B2B" stroke="#F1EBE7" mask="url(#path-1-inside-1_448_14526)"/>
</svg>
