<svg width="81" height="80" viewBox="0 0 81 80" fill="none" xmlns="http://www.w3.org/2000/svg">
<ellipse cx="40.7478" cy="40" rx="39.8738" ry="40" fill="#EAD7CA"/>
<path d="M32.9076 42.148C32.1812 41.8664 31.4414 41.9169 30.7026 42.1553L32.7141 49.1206C33.1018 48.6174 33.4737 48.1032 33.8453 47.5894C34.0117 47.3593 34.178 47.1293 34.3457 46.9004M32.9076 42.148C34.8236 42.8881 35.6143 45.1735 34.3457 46.9004M32.9076 42.148L33.0883 41.6818C33.0881 41.6817 33.0879 41.6817 33.0877 41.6816M32.9076 42.148L33.0877 41.6816M34.3457 46.9004L34.7487 47.1964M34.3457 46.9004L34.7491 47.1958C34.749 47.196 34.7488 47.1962 34.7487 47.1964M34.7487 47.1964C36.2267 45.1843 35.2879 42.5315 33.0877 41.6816M34.7487 47.1964C34.585 47.4198 34.4209 47.6467 34.2557 47.8751C33.8819 48.3919 33.5026 48.9164 33.1101 49.4258L33.1095 49.4266C32.4748 50.2471 32.0215 51.0994 31.894 52.0648L31.894 52.0651C31.6844 53.6452 32.0686 55.0408 33.1219 56.2326M33.0877 41.6816C32.2248 41.3472 31.3621 41.4171 30.5491 41.6794L30.5487 41.6796C29.8864 41.8939 29.2225 42.0952 28.5532 42.2982C28.3027 42.3742 28.0514 42.4504 27.7992 42.5276L27.7991 42.5277C27.5409 42.6068 27.2943 42.6811 27.0465 42.7558C26.8175 42.8249 26.5876 42.8943 26.3467 42.9679L26.3466 42.9679C24.7562 43.4545 23.011 42.6688 22.3074 41.1471L22.3062 41.1445C22.0875 40.6783 21.9744 40.1691 21.9753 39.6537M21.9753 39.6537C21.9796 38.4228 22.1057 37.1953 22.3518 35.9894L22.3521 35.9876C22.8376 33.564 23.8074 31.2642 25.2031 29.227L25.2041 29.2255C26.3495 27.5404 27.7594 26.0526 29.3789 24.8199L29.3802 24.819C30.5168 23.9482 31.7471 23.2082 33.0482 22.6127C34.0323 22.168 35.0517 21.8066 36.0958 21.532L36.0981 21.5314C37.7012 21.1017 39.3378 20.9074 41.0212 20.8344C41.3657 20.8679 41.7037 20.8958 42.0373 20.9233C42.7955 20.9858 43.5311 21.0464 44.2693 21.1675C45.7965 21.4241 47.2844 21.8764 48.6968 22.5134L48.6992 22.5145C52.9552 24.4063 56.366 27.8072 58.2778 32.0658L58.2787 32.0678C58.7263 33.0536 59.0864 34.0771 59.3548 35.1264L21.9753 39.6537ZM21.9753 39.6537L35.4571 58.209M21.9753 39.6537C21.9753 39.6536 21.9753 39.6535 21.9753 39.6533L21.4753 39.6524M21.9753 39.6537L21.8619 35.8894C21.6092 37.1278 21.4797 38.3883 21.4753 39.6524M21.9753 39.6537C21.9753 39.6538 21.9753 39.654 21.9753 39.6541L21.4753 39.6524M21.9753 39.6537L21.8536 41.3569M33.1219 56.2326L32.7473 56.5638L33.1219 56.2327C33.1219 56.2327 33.1219 56.2327 33.1219 56.2326ZM33.1219 56.2326C33.7785 56.9755 34.6057 57.4467 35.593 57.7278M35.593 57.7278L35.4571 58.209M35.593 57.7278C35.5933 57.7279 35.5936 57.728 35.5939 57.7281L35.4571 58.209M35.593 57.7278C36.681 58.0353 37.768 58.2765 38.8685 58.3881L38.8696 58.3882C40.1019 58.5162 41.3432 58.5317 42.5783 58.4345C44.0999 58.3138 45.6013 58.0089 47.0499 57.5264C50.0787 56.5001 52.7998 54.7224 54.9605 52.3583C57.1213 49.9941 58.6514 47.1203 59.4086 44.0037L35.4571 58.209M21.4753 39.6524C21.4742 40.2416 21.6034 40.8238 21.8536 41.3569M21.8536 41.3569C22.6609 43.1031 24.6609 44.0066 26.4929 43.446C26.7244 43.3753 26.9563 43.3053 27.1882 43.2354L21.8536 41.3569ZM41.067 58.3785C42.3401 58.3914 43.68 58.2398 45.005 57.9613L45.0051 57.9613C46.4427 57.6589 47.8384 57.1824 49.1614 56.5424C51.6419 55.3507 53.8308 53.6265 55.5731 51.4922C57.3151 49.3583 58.5682 46.8665 59.2437 44.1932C59.5294 43.0917 59.7103 41.9655 59.7839 40.8298L59.7841 40.8274L22.1104 39.8529C22.1556 41.0556 22.7514 41.9692 23.7592 42.5561L23.7605 42.5569C24.6939 43.0968 25.6605 43.0746 26.6024 42.7713C27.7389 42.4058 28.884 42.0684 30.036 41.7289C30.2613 41.6625 30.4868 41.5961 30.7126 41.5293L30.7127 41.5293C31.9189 41.1723 33.0235 41.3455 34.0295 42.0785L34.0297 42.0786C35.6265 43.2411 36.037 45.3623 34.9862 47.024L34.9861 47.0242C34.7635 47.3765 34.5154 47.7179 34.2548 48.0676C34.2015 48.1391 34.1475 48.2113 34.0931 48.2839C33.8848 48.562 33.6706 48.8481 33.4676 49.1391L33.4672 49.1398C33.4054 49.2286 33.3412 49.3195 33.2755 49.4123C32.9652 49.8508 32.6239 50.3332 32.3741 50.8529C31.8331 51.9764 31.8113 53.159 32.1756 54.3228C32.569 55.5827 33.3423 56.5475 34.5058 57.1769C35.2411 57.5748 36.0453 57.7507 36.77 57.9093C36.8527 57.9273 36.9343 57.9452 37.0146 57.9631L37.0162 57.9635C38.3463 58.2558 39.7054 58.3951 41.067 58.3785ZM41.067 58.3785C41.0651 58.3785 41.0632 58.3785 41.0613 58.3785L41.0666 57.8785L41.0728 58.3784C41.0709 58.3785 41.069 58.3785 41.067 58.3785ZM57.9591 31.638L57.9599 31.6398C58.5021 32.771 58.9304 33.9537 59.2386 35.1702C59.2387 35.1706 59.2388 35.1709 59.2389 35.1713L58.7542 35.294L57.9591 31.638ZM57.9591 31.638C55.9085 27.4023 52.3544 24.0873 47.9933 22.3436C46.663 21.8074 45.2743 21.4303 43.8559 21.22L43.8552 21.2199M57.9591 31.638L43.8552 21.2199M43.8552 21.2199C40.4319 20.7174 36.9369 21.1416 33.732 22.4487L33.7316 22.4489M43.8552 21.2199L33.7316 22.4489M33.7316 22.4489C32.4982 22.9531 31.3226 23.5895 30.2255 24.347M33.7316 22.4489L30.2255 24.347M59.9144 40.6582C60.0289 38.7942 59.8143 36.9492 59.3552 35.128L59.9144 40.6582ZM59.9144 40.6582C59.8431 41.7858 59.6739 42.905 59.4087 44.0031L59.9144 40.6582ZM30.2255 24.347C28.4564 25.562 26.9068 27.0705 25.6433 28.8078C24.0145 31.0314 22.9068 33.5948 22.4028 36.3073C22.185 37.4701 22.0651 38.6509 22.1104 39.8528L30.2255 24.347Z" stroke="#EAD7CA"/>
<path d="M41.037 20.3358C42.1431 20.4445 43.2586 20.4971 44.3533 20.6767C45.9231 20.9404 47.4527 21.4053 48.9044 22.06C53.2731 24.002 56.7739 27.4927 58.7361 31.8635C59.1953 32.8766 59.5646 33.9284 59.8396 35.0066C60.3096 36.8703 60.5317 38.768 60.4134 40.6916C60.3403 41.8485 60.1667 42.9969 59.8946 44.1235C59.1177 47.322 57.5474 50.2716 55.3296 52.6981C53.1118 55.1246 50.3186 56.9493 47.2094 58.0027C45.722 58.4983 44.1803 58.8115 42.6178 58.9354C41.3524 59.035 40.0806 59.0191 38.818 58.888C37.6792 58.7725 36.5622 58.5237 35.4571 58.2114C34.3945 57.909 33.4783 57.3932 32.7473 56.5662C31.5913 55.2583 31.1711 53.7151 31.3983 52.0018C31.5415 50.9171 32.0489 49.9829 32.7141 49.1231C33.2754 48.3944 33.8036 47.6429 34.3457 46.9028C35.6143 45.1759 34.8236 42.8905 32.9076 42.1504C32.1812 41.8689 31.4414 41.9194 30.7026 42.1577C29.7874 42.4539 28.8654 42.7266 27.9456 43.0082C27.4615 43.1565 26.9764 43.3007 26.4929 43.4485C24.6609 44.009 22.6609 43.1055 21.8536 41.3593C21.6034 40.8262 21.4742 40.2441 21.4753 39.6548C21.4797 38.3908 21.6092 37.1303 21.8619 35.8919C22.3606 33.4022 23.3568 31.0397 24.7906 28.9468C25.9663 27.2172 27.4136 25.6899 29.0761 24.4245C30.2426 23.5299 31.5055 22.7694 32.8412 22.1574C33.8511 21.701 34.8972 21.33 35.9686 21.0483C37.6288 20.6033 39.3176 20.406 41.037 20.3358Z" stroke="#1E3B2B" stroke-miterlimit="10"/>
<path d="M54.4135 46.9552C54.4104 48.9923 52.7943 50.6021 50.7568 50.5984C48.7578 50.5953 47.1588 48.9548 47.1567 46.9224C47.1567 44.9748 48.7967 43.3046 50.8009 43.3151C52.8051 43.3255 54.427 44.9805 54.4135 46.9552ZM53.2923 46.963C53.3359 45.6202 52.1727 44.434 50.774 44.4366C49.4074 44.4366 48.2463 45.6061 48.2732 46.9796C48.3013 48.3818 49.3877 49.4607 50.7926 49.4779C52.1328 49.4966 53.3323 48.3365 53.2923 46.963Z" fill="#1E3B2B"/>
<path d="M43.4881 52.163C43.4326 54.2448 41.7869 55.8062 39.7059 55.75C37.7292 55.6979 36.1779 54.0096 36.2272 51.973C36.2791 50.0046 37.9803 48.4099 39.9664 48.4713C41.9426 48.5327 43.5405 50.2076 43.4881 52.163ZM39.8481 54.6445C40.3473 54.647 40.836 54.5007 41.2522 54.2241C41.6684 53.9475 41.9933 53.5531 42.1857 53.091C42.3781 52.6289 42.4294 52.1199 42.333 51.6285C42.2366 51.1371 41.9968 50.6855 41.6442 50.331C41.2916 49.9765 40.8419 49.7351 40.3523 49.6374C39.8626 49.5397 39.3551 49.59 38.894 49.7821C38.433 49.9742 38.0392 50.2993 37.7626 50.7162C37.4861 51.1332 37.3392 51.6231 37.3406 52.1239C37.3452 52.7901 37.6107 53.4278 38.0798 53.8993C38.5489 54.3709 39.184 54.6385 39.8481 54.6445Z" fill="#1E3B2B"/>
<path d="M47.1582 34.5874C47.1602 33.8669 47.3753 33.1632 47.7762 32.5655C48.1772 31.9677 48.746 31.5028 49.4105 31.2296C50.0751 30.9564 50.8056 30.8872 51.5094 31.0308C52.2132 31.1744 52.8587 31.5243 53.3641 32.0362C53.8695 32.5481 54.2121 33.1989 54.3484 33.9063C54.4848 34.6137 54.4088 35.3457 54.1301 36.0098C53.8514 36.6738 53.3825 37.2399 52.7828 37.6363C52.1831 38.0328 51.4796 38.2418 50.7614 38.2369C48.7717 38.2306 47.1561 36.5959 47.1582 34.5874ZM53.2927 34.6092C53.326 33.2102 52.1799 32.0715 50.7858 32.0626C49.3917 32.0538 48.2955 33.1837 48.2742 34.5796C48.2529 35.9755 49.4037 37.1205 50.7837 37.1215C51.1131 37.1224 51.4394 37.0581 51.7439 36.9322C52.0484 36.8063 52.3251 36.6214 52.5582 36.388C52.7913 36.1546 52.9762 35.8773 53.1022 35.5721C53.2283 35.2668 53.293 34.9396 53.2927 34.6092Z" fill="#1E3B2B"/>
<path d="M26.7923 35.2145C26.7648 33.268 28.3602 31.576 30.436 31.5713C32.4039 31.5677 34.0465 33.2149 34.0465 35.2015C34.0495 35.6839 33.9567 36.162 33.7736 36.608C33.5905 37.054 33.3207 37.459 32.9799 37.7993C32.6392 38.1396 32.2343 38.4085 31.7889 38.5902C31.3435 38.7719 30.8665 38.8629 30.3857 38.8578C28.3493 38.8354 26.77 37.1767 26.7923 35.2145ZM32.9207 35.226C32.9622 33.8754 31.8425 32.6981 30.4111 32.6846C29.0373 32.671 27.914 33.8119 27.9083 35.2073C27.9026 36.6026 29.0222 37.7534 30.3945 37.7502C31.8311 37.7476 32.9596 36.561 32.9207 35.226Z" fill="#1E3B2B"/>
<path d="M36.8501 28.6292C36.8252 26.6769 38.486 25.0005 40.4757 25C42.483 25 44.1287 26.6905 44.1074 28.651C44.1061 29.1303 44.0105 29.6045 43.826 30.0465C43.6416 30.4886 43.3719 30.8897 43.0324 31.2269C42.693 31.5641 42.2906 31.8308 41.8481 32.0115C41.4057 32.1923 40.9321 32.2836 40.4544 32.2802C38.4414 32.2761 36.8252 30.5991 36.8501 28.6292ZM37.9749 28.6484C37.9749 30.0641 39.0821 31.1664 40.4969 31.1628C41.8843 31.1592 42.9665 30.0376 42.9873 28.636C43.0065 27.3046 41.8858 26.1086 40.4585 26.1159C39.0645 26.1232 37.9194 27.3077 37.9749 28.6484Z" fill="#1E3B2B"/>
</svg>
