<svg width="80" height="80" viewBox="0 0 80 80" fill="none" xmlns="http://www.w3.org/2000/svg">
<ellipse cx="39.8738" cy="40" rx="39.8738" ry="40" fill="#EAD7CA"/>
<path d="M34.418 55.8401C33.7957 55.7419 33.3118 55.6892 32.839 55.5862C31.4128 55.2741 30.2437 54.5188 29.2234 53.4857C26.9544 51.1895 24.6679 48.9109 22.3901 46.6236C21.6245 45.8555 20.8636 45.0819 20.0988 44.313C20.0081 44.2212 19.903 44.143 19.7661 44.0248C19.2488 44.5398 18.7434 45.0412 18.2404 45.5418C17.4446 46.3401 16.6487 47.1385 15.8528 47.9369C15.3578 48.4335 14.8811 48.4159 14.4521 47.8698C13.9125 47.1824 13.3833 46.4878 12.8604 45.79C12.5245 45.3446 12.5548 44.8767 12.9225 44.5925C13.2766 44.3162 13.7581 44.42 14.0956 44.8519C14.4688 45.331 14.8373 45.81 15.2957 46.4032L23.3085 38.2908C22.8501 37.9268 22.4554 37.605 22.0526 37.2944C20.011 35.719 17.9683 34.1453 15.9245 32.5736C15.0756 31.9205 14.2293 31.265 13.3857 30.6072C12.9734 30.2878 12.8986 29.8327 13.1779 29.4599C13.4414 29.1086 13.9412 29.0695 14.3487 29.38C16.0375 30.6766 17.7245 31.9753 19.4096 33.2762C21.179 34.6425 22.9469 36.0101 24.7132 37.3791C25.4343 37.9379 25.4542 38.318 24.8055 38.9679C23.5974 40.1798 22.3981 41.3965 21.178 42.5941C20.9392 42.8336 20.9353 42.967 21.1661 43.1977C23.5314 45.5529 25.8967 47.9082 28.2373 50.2866C28.5644 50.6195 28.9472 50.681 29.3372 50.756C31.1062 51.1089 32.9148 51.2188 34.7133 51.0825C36.9242 50.9045 39.0627 50.4023 40.8996 49.0866C41.6763 48.5277 42.3385 47.8092 43.0229 47.1273C45.2514 44.9233 47.4702 42.7112 49.6796 40.4912C51.6398 38.5263 53.5873 36.5495 55.5467 34.5831C58.4304 31.6903 61.317 28.8012 64.2065 25.9159C64.6458 25.4767 65.082 25.0328 65.5245 24.5985C65.6675 24.4593 65.8575 24.3791 66.0567 24.3736C66.256 24.3681 66.45 24.4378 66.6005 24.569C66.675 24.6399 66.7347 24.7251 66.7761 24.8194C66.8176 24.9137 66.8398 25.0154 66.8417 25.1185C66.8435 25.2215 66.8249 25.3239 66.7869 25.4197C66.7489 25.5155 66.6923 25.6027 66.6204 25.6763C65.2202 27.0959 63.8141 28.5109 62.4023 29.9214C60.2312 32.1036 58.059 34.2835 55.8857 36.4609C54.329 38.0231 52.7728 39.5855 51.2172 41.1482C51.1607 41.2067 51.1076 41.2682 51.058 41.3327C51.4894 41.9865 51.947 42.575 52.2916 43.224C53.1066 44.7601 53.2769 46.3944 52.8829 48.0894C52.5439 49.5433 51.7584 50.7241 50.7118 51.762C48.9068 53.5512 47.12 55.3595 45.3214 57.1551C44.8001 57.6756 44.2637 58.181 43.7344 58.6935L43.7647 58.874C44.5709 59.1366 45.366 59.4448 46.1865 59.6524C47.4342 59.969 48.7301 60.0475 50.0067 59.8839C52.8073 59.5303 55.1289 58.2712 57.0954 56.2561C59.6183 53.6693 62.189 51.1265 64.7397 48.5692C64.9729 48.3353 65.226 48.1006 65.6072 48.2147C66.259 48.4104 66.4031 49.1089 65.8898 49.6319C65.2117 50.3217 64.5225 51.0003 63.8388 51.6853C61.8147 53.7223 59.7865 55.7584 57.7544 57.7938C56.074 59.4883 53.9468 60.667 51.6223 61.1917C48.6306 61.8791 45.7329 61.5278 42.9839 60.1378C42.6847 59.9861 42.4881 60.0005 42.2239 60.2544C41.2824 61.1598 40.3934 62.1641 39.3214 62.8795C36.5048 64.7565 32.7244 64.2096 30.4196 61.7306C30.3026 61.6053 30.1737 61.4911 30.0599 61.3641C29.6755 60.9362 29.6731 60.557 30.0774 60.1458C30.8281 59.3826 31.5845 58.6252 32.3464 57.8736C33.0093 57.2165 33.6787 56.5658 34.418 55.8401ZM31.6739 60.8316C32.0567 61.1095 32.414 61.3961 32.7976 61.642C34.7324 62.8835 37.5474 62.6432 39.2036 61.0592C40.5295 59.7913 41.8156 58.4804 43.1129 57.1814C45.3055 54.9858 47.4726 52.7639 49.6891 50.5939C51.475 48.8463 52.0847 46.3817 50.9927 44.0472C50.7245 43.4763 50.395 42.9334 49.8594 42.5302C43.8077 48.6195 37.7774 54.6865 31.6739 60.8316ZM30.6719 52.5739C32.4976 54.6314 36.0671 54.9827 37.9413 52.118C35.5179 52.7336 33.1064 52.8246 30.6719 52.5739Z" fill="#1E3B2B" stroke="#EAD7CA" stroke-width="0.85"/>
<path d="M45.8062 51.1201C45.5173 51.3069 45.2698 51.4147 45.09 51.5919C43.8962 52.7719 42.7199 53.9647 41.5412 55.1575C41.1783 55.5247 41.1512 56.0277 41.4616 56.3279C41.8062 56.6616 42.2344 56.6473 42.6212 56.2728C42.992 55.9152 43.3534 55.5471 43.7171 55.1814C44.583 54.3096 45.4481 53.437 46.3124 52.5635C46.5631 52.3097 46.6308 51.9807 46.4485 51.6925C46.3092 51.4706 46.0474 51.3268 45.8062 51.1201ZM41.3056 57.2676C41.3056 56.7167 40.7485 56.2992 40.271 56.5626C39.9387 56.7475 39.6584 57.0137 39.456 57.3363C39.1512 57.8473 39.5619 58.4636 40.1397 58.454C40.614 58.442 41.304 57.7435 41.304 57.2692L41.3056 57.2676Z" fill="#1E3B2B" stroke="#EAD7CA"/>
<path d="M45.8063 51.1201C46.0451 51.3268 46.3093 51.4706 46.4494 51.6925C46.6317 51.9807 46.564 52.3097 46.3133 52.5635C45.4495 53.4386 44.5844 54.3112 43.718 55.1814C43.3543 55.5471 42.993 55.9152 42.6221 56.2728C42.2353 56.6457 41.8071 56.6616 41.4633 56.3263C41.1529 56.0261 41.18 55.5232 41.5429 55.1559C42.7216 53.9631 43.9002 52.7703 45.0917 51.5903C45.2699 51.4147 45.5174 51.3069 45.8063 51.1201Z" fill="#1E3B2B" stroke="#EAD7CA"/>
<path d="M41.3041 57.2692C41.3041 57.7435 40.6125 58.4421 40.1382 58.4524C39.5604 58.4652 39.1497 57.8489 39.4546 57.3347C39.6575 57.0138 39.9378 56.7494 40.2695 56.5658C40.747 56.3008 41.3089 56.7183 41.3041 57.2692Z" fill="#1E3B2B" stroke="#EAD7CA"/>
</svg>
