<svg width="32" height="27" viewBox="0 0 32 27" fill="none" xmlns="http://www.w3.org/2000/svg">
<path fill-rule="evenodd" clip-rule="evenodd" d="M31.3062 0.30156C31.5339 0.494897 31.6354 0.798706 31.5696 1.09011L25.9521 25.9674C25.891 26.2388 25.6935 26.459 25.4305 26.5495C25.1676 26.6401 24.8764 26.5879 24.6612 26.4118L16.577 19.7975L13.0309 26.1804C12.8733 26.4642 12.5603 26.625 12.2378 26.5879C11.9154 26.551 11.647 26.3232 11.5578 26.0112L8.48228 15.2467L0.93713 13.7377C0.589569 13.6682 0.328774 13.3788 0.295551 13.026C0.262312 12.6731 0.464525 12.3402 0.793002 12.207L30.4854 0.169646C30.7621 0.0574085 31.0785 0.108239 31.3062 0.30156ZM3.87664 12.6888L9.27684 13.7688C9.57149 13.8277 9.80853 14.0463 9.89109 14.3352L12.5688 23.7074L15.6404 18.1785C15.7559 17.9707 15.9577 17.8246 16.1912 17.78C16.4247 17.7354 16.6661 17.7966 16.85 17.9471L24.6726 24.3473L29.6661 2.23368L3.87664 12.6888Z" fill="#1E3B2B"/>
<path fill-rule="evenodd" clip-rule="evenodd" d="M31.466 0.485492C31.7021 0.860546 31.5896 1.35602 31.2145 1.59217L9.54707 15.2346C9.17201 15.4708 8.67654 15.3581 8.44039 14.9831C8.20425 14.608 8.31686 14.1125 8.69191 13.8764L30.3594 0.233974C30.7343 -0.00216837 31.2297 0.110438 31.466 0.485492Z" fill="#1E3B2B"/>
<path fill-rule="evenodd" clip-rule="evenodd" d="M31.2948 0.292148C31.638 0.572797 31.6885 1.07839 31.4078 1.4214L16.9629 19.0763C16.6822 19.4194 16.1766 19.47 15.8336 19.1892C15.4907 18.9085 15.4401 18.403 15.7206 18.06L30.1656 0.405075C30.4463 0.0620405 30.9519 0.0114833 31.2948 0.292148Z" fill="#1E3B2B"/>
</svg>
