<svg width="28" height="32" viewBox="0 0 28 32" fill="none" xmlns="http://www.w3.org/2000/svg">
<path d="M26.3419 12.5821C24.1225 12.4063 22.0729 11.6203 20.3606 10.3905L18.8565 9.31029V11.1622V22.0972C18.8565 27.0341 14.8387 31.0507 9.90299 31.0507C7.99569 31.0507 6.22765 30.4501 4.77348 29.4288L4.77343 29.4288C2.46098 27.8048 0.949512 25.1233 0.949512 22.0972C0.949512 17.1602 4.96732 13.1424 9.9043 13.1424C10.0324 13.1424 10.1603 13.1458 10.2884 13.1522V13.563V16.6374C10.162 16.6281 10.0339 16.6232 9.9043 16.6232C6.88597 16.6232 4.43161 19.0779 4.43161 22.0972C4.43161 24.2032 5.6275 26.0272 7.36485 26.9415L7.36503 26.9416C8.12331 27.3405 8.98786 27.5699 9.9056 27.5699C12.8566 27.5699 15.2594 25.224 15.3698 22.3026L15.3705 22.2848L15.3705 22.2669L15.3742 1.65312H18.91C18.9327 1.85108 18.962 2.04638 18.9971 2.23896L18.9975 2.24146C19.4258 4.55471 20.7976 6.53584 22.6953 7.77305C23.7668 8.47187 25.0076 8.93588 26.341 9.08667L26.3419 12.5821Z" fill="#1E3B2B" stroke="#F1EBE7" stroke-width="1.9"/>
</svg>
